<svg xmlns="http://www.w3.org/2000/svg" version="1.1" xmlns:xlink="http://www.w3.org/1999/xlink" xmlns:svgjs="http://svgjs.com/svgjs" width="1440" height="560" preserveAspectRatio="none" viewBox="0 0 1440 560"><g mask="url(&quot;#SvgjsMask1609&quot;)" fill="none"><rect width="1440" height="560" x="0" y="0" fill="url(#SvgjsLinearGradient1610)"></rect><path d="M0 0L496.22 0L0 101.32z" fill="rgba(255, 255, 255, .1)"></path><path d="M0 101.32L496.22 0L532.5600000000001 0L0 140z" fill="rgba(255, 255, 255, .075)"></path><path d="M0 140L532.5600000000001 0L728.3100000000001 0L0 372.78z" fill="rgba(255, 255, 255, .05)"></path><path d="M0 372.78L728.3100000000001 0L850.1800000000001 0L0 387.67999999999995z" fill="rgba(255, 255, 255, .025)"></path><path d="M1440 560L1391.38 560L1440 328.21000000000004z" fill="rgba(0, 0, 0, .1)"></path><path d="M1440 328.21000000000004L1391.38 560L1158.2 560L1440 226.49000000000004z" fill="rgba(0, 0, 0, .075)"></path><path d="M1440 226.49L1158.2 560L705.5600000000001 560L1440 168.69z" fill="rgba(0, 0, 0, .05)"></path><path d="M1440 168.69L705.56 560L238.91999999999996 560L1440 50.629999999999995z" fill="rgba(0, 0, 0, .025)"></path></g><defs><mask id="SvgjsMask1609"><rect width="1440" height="560" fill="#ffffff"></rect></mask><linearGradient x1="50%" y1="100%" x2="50%" y2="0%" gradientUnits="userSpaceOnUse" id="SvgjsLinearGradient1610"><stop stop-color="rgba(0, 0, 0, 1)" offset="0.14"></stop><stop stop-color="rgba(253, 57, 57, 1)" offset="1"></stop></linearGradient></defs></svg>