<?xml version="1.0" encoding="UTF-8"?>
<svg version="1.1" viewBox="0 0 622.63 240.77" xml:space="preserve" xmlns="http://www.w3.org/2000/svg" xmlns:cc="http://creativecommons.org/ns#" xmlns:dc="http://purl.org/dc/elements/1.1/" xmlns:rdf="http://www.w3.org/1999/02/22-rdf-syntax-ns#"><metadata><rdfRDF><ccWork rdf:about=""><dcFormat>image/svg+xml</dcFormat><dcType rdf:resource="http://purl.org/dc/dcmitype/StillImage"/><dcTitle/></ccWork></rdfRDF></metadata><g transform="matrix(1.25,0,0,-1.25,0,240.77)"><style transform="scale(.1)"><path d="m2111.3 1651.8h-158.86v93.35h425.33v-93.35h-158.86v-466.89h-107.61v466.89" fill="#3f464c"/><path d="m2569 1838.5c40.14 24.4 79.45 48.79 113.62 74.85l40.13-62.24c-38.42-27.75-70.03-46.25-116.15-69.83l-37.6 57.22zm-118.7-93.4h348.48v-93.35h-240.87v-135.45h222.07v-93.39h-222.07v-144.66h240.87v-93.39h-348.48v560.24" fill="#3f464c"/><path d="m2884.2 1591.2c0 102.64 60.64 162.36 202.42 162.36 52.97 0 107.62-6.74 154.6-18.51l-11.95-91.7c-46.13 8.42-99.95 14.31-139.23 14.31-74.31 0-98.22-25.25-98.22-84.97v-215.36c0-59.72 23.91-84.98 98.22-84.98 39.28 0 93.1 5.92 139.23 14.32l11.95-91.69c-46.98-11.78-101.63-18.52-154.6-18.52-141.78 0-202.42 59.74-202.42 162.36v252.38" fill="#3f464c"/><path d="m3436 1609.7v-424.82h-105.06v560.24h143.48l216.09-425.64v425.64h105.07v-560.24h-143.5l-216.08 424.82" fill="#3f464c"/><path d="m3915.1 1184.9h107.63v560.25h-107.63v-560.25z" fill="#3f464c"/><path d="m4129.5 1591.2c0 102.64 60.63 162.36 202.42 162.36 52.95 0 107.61-6.74 154.58-18.51l-11.95-91.7c-46.12 8.42-99.92 14.31-139.23 14.31-74.28 0-98.22-25.25-98.22-84.97v-215.36c0-59.72 23.94-84.98 98.22-84.98 39.31 0 93.11 5.92 139.23 14.32l11.95-91.69c-46.97-11.78-101.63-18.52-154.58-18.52-141.79 0-202.42 59.74-202.42 162.36v252.38" fill="#3f464c"/><path d="m4658.2 1354.8c0-53.01 27.33-84.97 107.6-84.97 80.3 0 107.63 31.96 107.63 84.97v220.4c0 53-27.33 84.97-107.63 84.97-80.27 0-107.6-31.97-107.6-84.97v-220.4zm322.86-5.88c0-93.38-54.66-172.47-215.26-172.47-160.55 0-215.22 79.09-215.22 172.47v232.17c0 93.38 54.67 172.46 215.22 172.46 160.6 0 215.26-79.08 215.26-172.46v-232.17" fill="#3f464c"/><path d="m2159.3 522.17h256.23v-44.582h-306.61v560.27h50.38v-515.69" fill="#3f464c"/><path d="m2529.9 477.59h50.379v560.27h-50.379v-560.27z" fill="#3f464c"/><path d="m2881 469.18c-49.52 0-111.88 8.41-160.57 26.89l9.39 40.41c51.26-15.14 103.35-22.699 152.89-22.699 97.36 0 123.85 28.578 123.85 100.09 0 86.649-0.85 95.879-127.27 124.51-137.5 31.109-152.87 55.512-152.87 168.23 0 91.707 34.15 139.64 176.79 139.64 49.54 0 108.47-8.39 146.92-19.33l-5.99-42.068c-41.85 9.253-94.82 16.828-139.24 16.828-112.73 0-128.1-26.926-128.1-96.739 0-90.851 2.56-95.07 122.14-124.5 149.48-37.011 158-58.043 158-164.06 0-91.668-31.6-147.2-175.94-147.2" fill="#3f464c"/><path d="m3495.9 663.5c0 47.109-28.19 79.078-93.95 79.078h-158.85v-221.24h173.37c53.8 0 79.43 26.07 79.43 70.648v71.512zm-17.95 270.88c0 38.707-22.2 59.722-70.89 59.722h-163.96v-207.78h146.88c62.35 0 87.97 31.953 87.97 76.563v71.492zm-285.26-456.79v560.27h213.52c76.88 0 122.15-36.18 122.15-110.21v-67.312c0-44.578-18.8-74.012-64.9-90.852 44.41-5.886 82.82-42.078 82.82-104.3v-73.203c0-77.386-57.21-114.4-130.66-114.4h-222.93" fill="#3f464c"/><path d="m3999.8 637.43v240.58c0 79.929-39.26 123.67-148.6 123.67-109.33 0-148.62-43.739-148.62-123.67v-240.58c0-79.918 39.29-123.65 148.62-123.65 109.34 0 148.6 43.731 148.6 123.65zm-148.6-168.25c-146.05 0-199.02 70.679-199.02 166.56v243.96c0 95.891 52.97 166.55 199.02 166.55 146.06 0 199.01-70.66 199.01-166.55v-243.96c0-95.879-52.95-166.56-199.01-166.56" fill="#3f464c"/><path d="m4248.4 667.7h234.03l-117.04 341.54-116.99-341.54zm249.38-42.89h-264.75l-52.97-147.22h-49.55l198.16 560.27h74.32l198.14-560.27h-49.53l-53.82 147.22" fill="#3f464c"/><path d="m794.8 0s-794.8 389.9-794.8 1117.8v808.36h1592.6v-808.36c0-727.9-797.75-1117.8-797.75-1117.8" fill="#05a1e6" fill-rule="evenodd"/><path d="m1220.2 1318h-66.33v-498.53h-143.5l-0.02 498.53h-66.13v99.96h275.98v-99.96" fill="#fff"/><path d="m579.56 819.78h-143.45l0.168 598.16h143.09l0.188-598.16" fill="#fff"/><path d="m938.14 1756.9c-118.7 0-214.9-61.52-214.9-180.23l-0.039-916.21c0-100.55 0-150.41-71.429-150.41-66.411 0-72.25 49.649-72.25 122.92h-0.016c0 39.551-32.109 71.641-71.688 71.641-39.531 0-71.632-32.09-71.632-71.641h-0.129c0-100.87 97.05-152.76 215.72-152.76 118.68 0 214.89 61.547 214.89 180.25l0.066 916.21c0 100.55-0.027 150.39 71.407 150.39 66.423 0 72.243-49.7 72.243-122.87h0.08c0-39.6 32.07-71.64 71.6-71.64 39.6 0 71.66 32.04 71.66 71.64h0.15c0 100.87-97.05 152.71-215.73 152.71" fill="#fff"/></style></style></svg>
